<?xml version="1.0" standalone="no"?>
<!DOCTYPE svg PUBLIC "-//W3C//DTD SVG 20010904//EN"
 "http://www.w3.org/TR/2001/REC-SVG-20010904/DTD/svg10.dtd">
<svg version="1.0" xmlns="http://www.w3.org/2000/svg"
 width="96.000000pt" height="96.000000pt" viewBox="0 0 96.000000 96.000000"
 preserveAspectRatio="xMidYMid meet">
<metadata>
Created by potrace 1.14, written by Peter Selinger 2001-2017
</metadata>
<g transform="translate(0.000000,96.000000) scale(0.100000,-0.100000)"
fill="#000000" stroke="none">
<path d="M421 919 c-219 -29 -382 -214 -382 -434 -1 -249 191 -446 436 -448
195 -1 363 119 425 304 104 308 -155 620 -479 578z m141 -50 c208 -44 347
-249 309 -455 -19 -102 -89 -227 -115 -205 -7 6 -44 22 -82 37 -38 14 -75 30
-81 36 -23 19 -14 65 25 135 38 66 39 71 41 173 1 129 -10 152 -94 194 -49 25
-65 28 -113 23 -59 -6 -92 -25 -126 -71 -18 -24 -21 -43 -22 -139 l-2 -112 39
-68 c40 -70 49 -116 27 -135 -7 -6 -44 -22 -82 -36 -38 -15 -75 -31 -81 -36
-22 -19 -87 84 -111 175 -56 208 77 428 291 481 65 16 111 17 177 3z"/>
</g>
</svg>
